<?xml version="1.0" encoding="UTF-8" standalone="no"?>
<!DOCTYPE svg PUBLIC "-//W3C//DTD SVG 1.1//EN" "http://www.w3.org/Graphics/SVG/1.1/DTD/svg11.dtd">
<svg width="100%" height="100%" viewBox="0 0 775 203" version="1.1" xmlns="http://www.w3.org/2000/svg" xmlns:xlink="http://www.w3.org/1999/xlink" xml:space="preserve" xmlns:serif="http://www.serif.com/" style="fill-rule:evenodd;clip-rule:evenodd;stroke-linejoin:round;stroke-miterlimit:2;">
    <g transform="matrix(1,0,0,1,-179.593,-44.8477)">
        <g transform="matrix(1.33333,0,0,-1.33333,-150.029,294.488)">
            <g id="g12" transform="matrix(1,0,0,1,4.16526,0.620847)">
                <g id="g14">
                    <g id="g20" transform="matrix(1,0,0,1,344.398,71.0947)">
                        <path id="path22" d="M0,0C0,1.7 -1.108,2.958 -3.373,3.448L-3.373,4.548C-2.119,4.548 2.057,4.38 3.232,4.38C4.248,4.38 8.292,4.548 9.55,4.548L9.55,3.448C7.448,3.038 6.344,1.797 6.344,0L6.344,-21.581C6.344,-28.415 10.097,-32.278 17.947,-32.278C24.711,-32.278 29.974,-29.241 29.974,-22.089L29.974,0.084C29.974,1.687 28.967,2.958 26.433,3.448L26.433,4.548C27.355,4.548 30.808,4.38 31.987,4.38C32.994,4.38 36.618,4.548 37.545,4.548L37.545,3.448C35.1,2.865 34.013,1.771 34.013,0.084L34.013,-20.9C34.013,-30.318 28.534,-35.727 16.711,-35.727C5.704,-35.727 0,-30.724 0,-21.876L0,0Z" style="fill:rgb(154,162,171);fill-rule:nonzero;"/>
                    </g>
                    <g id="g24" transform="matrix(1,0,0,1,391.612,37.0596)">
                        <path id="path26" d="M0,0C2.561,0.477 3.572,1.774 3.572,3.364L3.572,33.192C3.572,35.722 2.225,36.86 -0.071,37.487L-0.071,38.587C1.228,38.49 3.408,38.433 4.521,38.433C5.532,38.433 7.104,38.45 8.163,38.587L34.035,8.167L34.035,34.119C34.035,35.718 33.02,36.989 30.495,37.487L30.495,38.587C31.422,38.587 34.751,38.415 35.934,38.415C36.963,38.415 40.53,38.587 41.47,38.587L41.47,37.487C39.002,36.905 37.811,35.801 37.811,34.119L37.811,-1.691L36.252,-1.691C35.271,-1.466 33.417,-0.411 30.592,2.688L7.444,29.651L7.444,3.364C7.444,1.766 8.366,0.499 10.892,0L10.892,-1.104C9.965,-1.104 6.636,-0.928 5.453,-0.928C4.433,-0.928 0.94,-1.104 -0,-1.104L0,0Z" style="fill:rgb(154,162,171);fill-rule:nonzero;"/>
                    </g>
                    <g id="g28" transform="matrix(1,0,0,1,595.763,45.1035)">
                        <path id="path30" d="M0,0L1.095,0C1.674,-2.229 2.949,-4.261 4.737,-5.435C6.597,-6.746 9.515,-7.373 11.872,-7.373C17.077,-7.373 20.376,-4.795 20.376,-0.715C20.376,3.51 16.15,5.704 11.087,8.234C7.32,10.119 -0.079,13.231 -0.079,20.384C-0.079,27.047 5.003,31.192 13.131,31.192C18.495,31.192 21.012,29.881 24.632,30.049L24.562,21.965L23.457,21.965C22.009,26.729 17.683,28.389 12.945,28.389C7.647,28.389 5.665,25.359 5.665,22.278C5.665,17.867 9.982,15.643 14.874,13.461C20.376,11.011 26.345,7.916 26.345,1.024C26.345,-5.501 21.241,-10.226 11.912,-10.226C6.362,-10.226 3.033,-8.641 0.115,-8.282L0,0Z" style="fill:rgb(154,162,171);fill-rule:nonzero;"/>
                    </g>
                    <g id="g32" transform="matrix(1,0,0,1,706.946,52.375)">
                        <path id="path34" d="M0,0L-10.534,16.9C-12.331,19.867 -13.708,21.431 -15.713,22.172L-15.713,23.268C-14.269,23.268 -10.37,23.095 -9.263,23.095C-8.261,23.095 -4.053,23.268 -2.534,23.268L-2.534,22.172C-3.881,21.934 -4.512,21.259 -4.512,20.243C-4.512,19.347 -3.902,18.194 -3.289,17.192C-2.688,16.199 4.478,4.313 4.478,4.313L11.96,17.187C12.716,18.477 13.25,19.757 13.25,20.601C13.25,21.369 12.706,22.005 11.431,22.172L11.431,23.268C12.698,23.268 15.36,23.095 16.208,23.095C17.056,23.095 20.115,23.268 21.373,23.268L21.373,22.247C18.495,21.068 16.698,18.543 14.954,15.616L5.378,-0.389M6.031,1.629L6.031,-11.872C6.031,-13.21 7.051,-14.892 9.355,-15.315L9.355,-16.42C8.071,-16.42 3.877,-16.243 2.663,-16.243C1.643,-16.243 -2.38,-16.42 -3.832,-16.42L-3.832,-15.315C-1.519,-14.892 -0.41,-13.21 -0.41,-11.872L-0.41,1.037" style="fill:rgb(154,162,171);fill-rule:nonzero;"/>
                    </g>
                    <g id="g36" transform="matrix(1,0,0,1,511.206,75.6426)">
                        <path id="path38" d="M0,0L24.702,0C25.466,0 26.804,0.088 27.567,0.419L28.672,0.419L28.499,-7.607L27.404,-7.607C26.464,-5.082 25.488,-3.06 20.707,-3.06L9.982,-3.06L9.982,-17.047L18.248,-17.047C19.453,-17.047 20.914,-16.945 21.546,-16.795C23.404,-16.389 24.222,-15.355 24.597,-13.771L25.7,-13.771C25.621,-14.98 25.621,-17.74 25.621,-18.557C25.621,-19.378 25.7,-22.283 25.7,-23.599L24.597,-23.599C24.066,-22.018 23.343,-20.817 21.546,-20.376C20.914,-20.208 19.427,-20.071 18.248,-20.071L9.982,-20.071L9.982,-36.478L21.647,-36.478C26.742,-36.478 28.222,-34.354 29.488,-31.352L30.579,-31.607L29.488,-39.851C25.7,-39.515 23.427,-39.515 19.126,-39.515L6.8,-39.515C5.612,-39.515 1.254,-39.688 -0.013,-39.688L-0.013,-38.588C2.212,-38.164 3.511,-37.064 3.511,-34.932L3.511,-4.588C3.511,-2.707 2.499,-1.532 0,-1.113L0,0Z" style="fill:rgb(154,162,171);fill-rule:nonzero;"/>
                    </g>
                    <g id="g40" transform="matrix(1,0,0,1,448.115,70.8389)">
                        <path id="path42" d="M0,0C0,2.035 -1.214,3.156 -3.594,3.669L-3.594,4.759C-2.269,4.759 2.019,4.592 3.268,4.592C4.314,4.592 8.721,4.759 10.063,4.759L10.063,3.669C7.696,3.156 6.455,2.142 6.455,0L6.455,-30.133C6.455,-32.168 7.674,-33.276 10.063,-33.779L10.063,-34.884C8.725,-34.884 4.499,-34.711 3.268,-34.711C2.203,-34.711 -2.269,-34.884 -3.598,-34.884L-3.598,-33.779C-1.165,-33.325 0,-32.261 0,-30.133L0,0Z" style="fill:rgb(154,162,171);fill-rule:nonzero;"/>
                    </g>
                    <g id="g44" transform="matrix(1,0,0,1,635.503,70.8389)">
                        <path id="path46" d="M0,0C0,2.035 -1.228,3.156 -3.603,3.669L-3.603,4.759C-2.278,4.759 2.013,4.592 3.253,4.592C4.309,4.592 8.715,4.759 10.053,4.759L10.053,3.669C7.687,3.156 6.45,2.142 6.45,0L6.45,-30.133C6.45,-32.168 7.669,-33.276 10.053,-33.779L10.053,-34.884C8.724,-34.884 4.503,-34.711 3.253,-34.711C2.207,-34.711 -2.278,-34.884 -3.603,-34.884L-3.603,-33.779C-1.175,-33.325 0,-32.261 0,-30.133L0,0Z" style="fill:rgb(154,162,171);fill-rule:nonzero;"/>
                    </g>
                    <g id="g48" transform="matrix(1,0,0,1,669.838,75.4746)">
                        <path id="path50" d="M0,0C-13.541,0 -15.708,0.252 -18.477,0.424L-18.454,-7.753L-17.351,-7.753C-16.34,-4.128 -14.322,-3.285 -11.708,-3.285L-3.214,-3.285L-3.214,-34.769C-3.214,-36.896 -4.379,-37.961 -6.816,-38.415L-6.816,-39.52C-5.479,-39.52 -0.967,-39.347 0.075,-39.347C1.316,-39.347 5.555,-39.52 6.875,-39.52L6.875,-38.415C4.481,-37.912 3.268,-36.804 3.268,-34.769L3.268,-3.285L11.695,-3.285C14.406,-3.285 16.345,-4.208 17.355,-7.753L18.446,-7.753L18.464,0.424C15.713,0.252 13.546,0 0,0" style="fill:rgb(154,162,171);fill-rule:nonzero;"/>
                    </g>
                    <g id="g52" transform="matrix(1,0,0,1,561.785,40.7061)">
                        <path id="path54" d="M0,0C0,-2.035 1.293,-3.139 3.682,-3.646L3.682,-4.751C2.357,-4.751 -1.974,-4.578 -3.21,-4.578C-4.27,-4.578 -8.499,-4.751 -9.832,-4.751L-9.832,-3.646C-7.616,-3.223 -6.31,-2.128 -6.31,0L-6.31,30.441C-6.31,32.313 -7.329,33.492 -9.823,33.916L-9.823,35.011C-8.499,35.011 -4.31,34.844 -3.126,34.844C-1.187,34.844 4.322,35.17 6.49,35.17C15.982,35.17 21.267,31.245 21.267,24.517C21.267,19.228 17.333,15.651 11.275,14.19C11.275,14.19 12.658,13.387 14.035,11.784C15.709,9.811 20.229,3.324 22.105,1.056C23.978,-1.219 26.375,-3.757 28.944,-3.872L28.944,-4.759C27.713,-5.028 25.739,-5.263 24.229,-5.263C21.006,-5.263 18.433,-4.124 15.934,-1.1C13.771,1.532 10.102,6.993 7.942,9.753C6.561,11.51 4.887,12.883 1.823,13.387C1.231,13.488 0.671,13.572 0,13.651L0,0ZM0,16.177C1.263,16.005 3.121,15.925 4.958,15.925C12.389,15.925 14.729,20.199 14.729,23.982C14.729,29.333 11.156,32.649 4.653,32.649C3.307,32.649 1.355,32.481 0,32.226L0,16.177Z" style="fill:rgb(154,162,171);fill-rule:nonzero;"/>
                    </g>
                    <g id="g56" transform="matrix(1,0,0,1,467.696,70.7109)">
                        <path id="path58" d="M0,0C-0.865,1.916 -2.194,3.32 -4.459,3.818L-4.459,4.936C-3.051,4.936 1.828,4.759 2.9,4.759C3.886,4.759 8.15,4.936 9.599,4.936L9.599,3.85C8.313,3.603 6.848,2.892 6.848,1.576C6.848,0.636 7.417,-0.645 8.508,-3.056L18.733,-26.322L28.411,-3.016C29.175,-1.135 29.727,0.322 29.727,1.435C29.727,2.666 28.592,3.519 26.984,3.85L26.984,4.936C28.27,4.936 31.422,4.759 32.402,4.759C33.298,4.759 36.998,4.936 38.411,4.936L38.411,3.818C35.996,3.165 34.525,1.836 33.17,-1.312L18.927,-34.896L15.704,-34.896L0,0Z" style="fill:rgb(154,162,171);fill-rule:nonzero;"/>
                    </g>
                    <g id="g60" transform="matrix(1,0,0,1,504.213,176.627)">
                        <path id="path62" d="M0,0C-1.646,3.634 -4.172,6.283 -8.45,7.232L-8.45,9.347C-5.788,9.347 3.051,9.029 5.082,9.029C6.954,9.029 15.515,9.347 18.243,9.347L18.243,7.285C15.823,6.812 13.042,5.461 13.042,2.967C13.042,1.206 14.137,-1.228 16.168,-5.788L35.563,-49.881L53.916,-5.713C55.347,-2.137 56.415,0.596 56.415,2.711C56.415,5.06 54.243,6.653 51.201,7.285L51.201,9.347C53.629,9.347 59.532,9.029 61.408,9.029C63.113,9.029 70.124,9.347 72.791,9.347L72.791,7.351C68.217,6.11 65.418,3.483 62.87,-2.481L35.89,-66.142L29.784,-66.142L0,0Z" style="fill:rgb(154,162,171);fill-rule:nonzero;"/>
                    </g>
                    <g id="g64" transform="matrix(1,0,0,1,243.051,112.909)">
                        <path id="path66" d="M0,0C3.523,0.804 6,2.406 6,6.397L6,64.76C6,68.592 3.695,70.182 0,71.144L0,73.215C1.85,73.215 9.819,72.901 11.757,72.901C13.991,72.901 22.344,73.215 24.181,73.215L24.181,71.144C20.662,70.345 18.053,68.747 18.053,64.76L18.053,40.38L61.532,40.38L61.532,64.76C61.532,68.747 59.214,70.345 55.541,71.144L55.541,73.215C57.377,73.215 65.581,72.901 67.81,72.901C69.735,72.901 77.89,73.215 79.708,73.215L79.708,71.144C76.186,70.345 73.576,68.747 73.576,64.76L73.576,6.397C73.576,2.565 76.026,0.958 79.708,0L79.708,-1.911C77.89,-1.911 69.735,-1.753 67.81,-1.753C65.581,-1.753 57.377,-1.911 55.541,-1.911L55.541,0C59.038,0.804 61.532,2.406 61.532,6.397L61.532,33.979L18.053,33.979L18.053,6.397C18.053,2.406 20.499,0.958 24.181,0L24.181,-1.911C22.344,-1.911 13.991,-1.753 11.757,-1.753C9.819,-1.753 1.85,-1.911 0,-1.911L0,0Z" style="fill:rgb(154,162,171);fill-rule:nonzero;"/>
                    </g>
                    <g id="g68" transform="matrix(1,0,0,1,745.967,112.909)">
                        <path id="path70" d="M0,0C4.512,0.804 6.998,2.596 6.998,6.715L6.998,64.76C6.998,68.76 4.547,70.345 0.186,71.144L0.186,73.215C2.697,73.215 10.874,72.901 13.139,72.901C16.795,72.901 26.993,73.7 34.932,73.7C61.678,73.7 77.916,58.764 77.916,36.053C77.916,13.978 61.02,-2.38 33.443,-2.38C25.492,-2.38 16.062,-1.753 12.371,-1.753C10.128,-1.753 2.503,-2.07 0,-2.07L0,0ZM19.042,3.846C21.766,3.351 26.799,3.042 30.768,3.042C53.236,3.042 64.932,16.565 64.932,35.426C64.932,54.98 52.592,68.738 31.585,68.738C27.293,68.738 21.93,68.416 19.042,67.947L19.042,3.846Z" style="fill:rgb(154,162,171);fill-rule:nonzero;"/>
                    </g>
                    <g id="g72" transform="matrix(1,0,0,1,443.224,119.836)">
                        <path id="path74" d="M0,0C0,-3.868 2.45,-5.969 6.958,-6.927L6.958,-8.998C4.446,-8.998 -3.735,-8.68 -6.088,-8.68C-8.075,-8.68 -16.102,-8.998 -18.609,-8.998L-18.609,-6.927C-14.424,-6.124 -11.956,-4.04 -11.956,0L-11.956,57.629C-11.956,61.175 -13.872,63.417 -18.601,64.217L-18.601,66.288C-16.088,66.288 -8.159,65.974 -5.934,65.974C-2.256,65.974 8.173,66.587 12.287,66.587C30.274,66.587 40.287,59.148 40.287,46.424C40.287,36.393 32.817,29.643 21.352,26.857C21.352,26.857 23.952,25.342 26.569,22.292C29.744,18.561 38.504,6.022 42.045,1.727C45.585,-2.574 50.128,-7.377 54.985,-7.598L54.985,-9.29C52.658,-9.792 48.932,-10.221 46.084,-10.221C39.952,-10.221 35.082,-8.075 30.345,-2.335C26.261,2.645 19.117,13.232 15.024,18.459C12.411,21.789 9.259,24.384 3.471,25.342C2.331,25.537 1.259,25.687 0,25.828L0,0ZM0,30.609C2.38,30.296 5.898,30.137 9.387,30.137C23.453,30.137 27.872,38.234 27.872,45.387C27.872,55.545 21.108,61.811 8.786,61.811C6.247,61.811 2.548,61.488 0,61.02L0,30.609Z" style="fill:rgb(154,162,171);fill-rule:nonzero;"/>
                    </g>
                    <g id="g76" transform="matrix(1,0,0,1,680.293,119.836)">
                        <path id="path78" d="M0,0C0,-3.868 2.459,-5.969 6.972,-6.927L6.972,-8.998C4.464,-8.998 -3.709,-8.68 -6.062,-8.68C-8.084,-8.68 -16.084,-8.998 -18.601,-8.998L-18.601,-6.927C-14.424,-6.124 -11.951,-4.04 -11.951,0L-11.951,57.629C-11.951,61.175 -13.885,63.417 -18.587,64.217L-18.587,66.288C-16.066,66.288 -8.163,65.974 -5.92,65.974C-2.234,65.974 8.189,66.587 12.278,66.587C30.296,66.587 40.278,59.148 40.278,46.424C40.278,36.393 32.826,29.643 21.352,26.857C21.352,26.857 23.965,25.342 26.561,22.292C29.766,18.561 38.525,6.022 42.053,1.727C45.607,-2.574 50.15,-7.377 54.98,-7.598L54.98,-9.29C52.685,-9.792 48.937,-10.221 46.119,-10.221C39.974,-10.221 35.082,-8.075 30.357,-2.335C26.273,2.645 19.152,13.232 15.024,18.459C12.41,21.789 9.268,24.384 3.492,25.342C2.336,25.537 1.275,25.687 0,25.828L0,0ZM0,30.609C2.41,30.296 5.907,30.137 9.399,30.137C23.471,30.137 27.877,38.234 27.877,45.387C27.877,55.545 21.108,61.811 8.809,61.811C6.247,61.811 2.565,61.488 0,61.02L0,30.609Z" style="fill:rgb(154,162,171);fill-rule:nonzero;"/>
                    </g>
                    <g id="g80" transform="matrix(1,0,0,1,334.199,112.923)">
                        <path id="path82" d="M0,0C4.759,1.112 7.373,4.194 9.108,8.318L33.188,66.256C34.212,68.653 35.404,73.581 35.404,73.581L42.142,73.581C42.142,73.581 43.347,68.64 44.349,66.238L69.797,8.159C71.612,4.159 73.576,1.271 78.636,0L78.623,-1.93C75.868,-1.93 67.303,-1.771 65.355,-1.771C63.417,-1.771 55.236,-1.93 52.486,-1.93L52.495,0C56.199,0.909 57.369,2.794 57.369,4.618C57.369,6.167 56.729,7.916 55.952,9.73L50.481,22.208L22.441,22.208L17.431,9.66C16.87,8.238 16.203,6.229 16.203,4.874C16.203,2.781 17.298,1.112 21.501,0L21.492,-1.93C19.002,-1.93 12.428,-1.771 10.888,-1.771L-0.004,-1.93L0,0ZM47.943,28.124L35.969,56.022L24.817,28.124L47.943,28.124Z" style="fill:rgb(154,162,171);fill-rule:nonzero;"/>
                    </g>
                    <g id="g84" transform="matrix(1,0,0,1,572.756,112.923)">
                        <path id="path86" d="M0,0C4.756,1.112 7.378,4.194 9.104,8.318L33.192,66.256C34.217,68.653 35.422,73.581 35.422,73.581L42.159,73.581C42.159,73.581 43.352,68.64 44.35,66.238L69.807,8.159C71.607,4.159 73.59,1.271 78.628,0L78.619,-1.93C75.873,-1.93 67.299,-1.771 65.338,-1.771C63.418,-1.771 55.241,-1.93 52.486,-1.93L52.486,0C56.213,0.909 57.365,2.794 57.365,4.618C57.365,6.167 56.733,7.916 55.97,9.73L50.478,22.208L22.437,22.208L17.422,9.66C16.861,8.238 16.199,6.229 16.199,4.874C16.199,2.781 17.294,1.112 21.497,0L21.497,-1.93C18.998,-1.93 12.434,-1.771 10.884,-1.771L-0.009,-1.93L0,0ZM47.943,28.124L35.961,56.022L24.817,28.124L47.943,28.124Z" style="fill:rgb(154,162,171);fill-rule:nonzero;"/>
                    </g>
                </g>
            </g>
        </g>
    </g>
</svg>
