<?xml version="1.0" encoding="UTF-8" standalone="no"?>
<!DOCTYPE svg PUBLIC "-//W3C//DTD SVG 1.1//EN" "http://www.w3.org/Graphics/SVG/1.1/DTD/svg11.dtd">
<svg width="100%" height="100%" viewBox="0 0 967 942" version="1.1" xmlns="http://www.w3.org/2000/svg" xmlns:xlink="http://www.w3.org/1999/xlink" xml:space="preserve" xmlns:serif="http://www.serif.com/" style="fill-rule:evenodd;clip-rule:evenodd;stroke-linejoin:round;stroke-miterlimit:2;">
    <g transform="matrix(1,0,0,1,-1272.44,-299.126)">
        <g transform="matrix(4.16667,0,0,4.16667,0,0)">
            <g transform="matrix(1,0,0,1,311.135,243.168)">
                <path d="M0,-17.685L9.89,-17.685C15.908,-17.685 16.406,-16.097 16.406,-14.329C16.406,-12.579 15.908,-11.007 9.89,-11.007L0,-11.007L0,-17.685ZM21.979,-14.365C21.979,-18.325 20.023,-23.044 10.706,-23.044L-5.715,-23.044L-5.715,5.359L0,5.359L0,-5.648L10.706,-5.648C20.023,-5.648 21.979,-10.388 21.979,-14.365" style="fill:rgb(156,162,171);fill-rule:nonzero;"/>
            </g>
        </g>
        <g transform="matrix(4.16667,0,0,4.16667,0,0)">
            <g transform="matrix(1,0,0,1,368.294,232.674)">
                <path d="M0,3.942L0,-12.55L-5.714,-12.55L-5.714,3.942C-5.714,8.877 -8.613,11.275 -14.575,11.275C-20.537,11.275 -23.435,8.877 -23.435,3.942L-23.435,-12.55L-29.149,-12.55L-29.149,3.942C-29.149,12.035 -23.974,16.492 -14.575,16.492C-5.176,16.492 0,12.035 0,3.942" style="fill:rgb(156,162,171);fill-rule:nonzero;"/>
            </g>
        </g>
        <g transform="matrix(4.16667,0,0,4.16667,0,0)">
            <g transform="matrix(1,0,0,1,393.231,225.483)">
                <path d="M0,17.685L-10.813,17.685L-10.813,10.866L0.355,10.866C6.126,10.866 6.126,13.342 6.126,14.4C6.126,16.372 5.084,17.685 0,17.685M-2.202,-0.142C3.434,-0.142 5.309,0.271 5.309,2.717C5.309,3.519 5.309,5.648 -1.136,5.648L-10.813,5.648L-10.813,-0.142L-2.202,-0.142ZM11.912,14.506C11.912,11.09 10.123,9.164 8.469,8.06C9.788,7.064 11.024,5.464 11.024,2.682C11.024,-5.359 2.513,-5.359 -0.284,-5.359L-16.528,-5.359L-16.528,23.044L-2.024,23.044C2.5,23.044 11.912,23.044 11.912,14.506" style="fill:rgb(156,162,171);fill-rule:nonzero;"/>
            </g>
        </g>
        <g transform="matrix(4.16667,0,0,4.16667,0,0)">
            <g transform="matrix(1,0,0,1,438.729,225.483)">
                <path d="M0,17.685L-19.568,17.685L-19.568,-5.359L-25.283,-5.359L-25.283,23.044L0,23.044L0,17.685Z" style="fill:rgb(156,162,171);fill-rule:nonzero;"/>
            </g>
        </g>
        <g transform="matrix(4.16667,0,0,4.16667,0,0)">
            <g transform="matrix(-1,0,0,1,894.377,-126.624)">
                <rect x="444.331" y="346.748" width="5.715" height="28.403" style="fill:rgb(156,162,171);"/>
            </g>
        </g>
        <g transform="matrix(4.16667,0,0,4.16667,0,0)">
            <g transform="matrix(1,0,0,1,487.891,227.675)">
                <path d="M0,13.299L0.608,12.121L-4.469,9.647L-5.06,10.738C-7.021,14.367 -10.179,16.131 -14.714,16.131C-21.308,16.131 -25.243,12.753 -25.243,7.094C-25.243,0.508 -21.7,-2.973 -14.999,-2.973C-10.133,-2.973 -6.913,-1.219 -5.431,2.242L-4.906,3.465L0.156,1.133L-0.355,-0.031C-2.6,-5.14 -8.087,-8.191 -15.034,-8.191C-24.899,-8.191 -31.028,-2.484 -31.028,6.703C-31.028,13.852 -26.817,21.49 -14.999,21.49C-7.753,21.49 -2.847,18.811 0,13.299" style="fill:rgb(156,162,171);fill-rule:nonzero;"/>
            </g>
        </g>
        <g transform="matrix(4.16667,0,0,4.16667,0,0)">
            <g transform="matrix(-1,0,0,1,995.905,-126.624)">
                <rect x="495.095" y="346.748" width="5.715" height="28.403" style="fill:rgb(156,162,171);"/>
            </g>
        </g>
        <g transform="matrix(4.16667,0,0,4.16667,0,0)">
            <g transform="matrix(1,0,0,1,523.297,237.517)">
                <path d="M0,-6.385C-5.245,-6.864 -8.429,-7.311 -8.429,-9.494C-8.429,-12.384 -3.701,-12.816 -0.883,-12.816C5.202,-12.816 7.462,-10.205 8.548,-8.95L9.55,-7.811L13.731,-11.21L13.024,-12.2C12.047,-13.569 8.16,-18.033 -0.812,-18.033C-12.474,-18.033 -14.215,-12.372 -14.215,-8.997C-14.215,-2.206 -6.651,-1.475 -0.573,-0.887C4.784,-0.369 8.297,0.142 8.297,2.435C8.297,6.18 1.013,6.289 0.183,6.289C-6.946,6.289 -9.085,3.438 -10.499,1.552L-11.327,0.449L-14.79,3.403L-15.774,4.295L-14.887,5.283C-12.609,7.818 -9.167,11.648 -0.173,11.648C6.403,11.648 14.083,9.235 14.083,2.435C14.083,-5.102 6.274,-5.814 0,-6.385" style="fill:rgb(156,162,171);fill-rule:nonzero;"/>
            </g>
        </g>
        <g transform="matrix(4.16667,0,0,4.16667,0,0)">
            <g transform="matrix(1,0,0,1,331.054,278.487)">
                <path d="M0,8.875L10.225,8.875C9.136,12.567 5.062,13.919 1.614,13.919C-4.89,13.919 -8.772,10.541 -8.772,4.882C-8.772,-1.704 -5.279,-5.186 1.33,-5.186C3.389,-5.186 8.394,-4.69 10.406,-0.103L10.964,1.173L15.893,-1.425L15.403,-2.531C13.222,-7.46 8.001,-10.403 1.437,-10.403C-8.429,-10.403 -14.558,-4.696 -14.558,4.491C-14.558,11.64 -10.347,19.278 1.472,19.278C5.841,19.278 8.649,18.118 10.545,16.755L10.545,18.853L15.905,18.853L15.905,3.516L0,3.516L0,8.875Z" style="fill:rgb(156,162,171);fill-rule:nonzero;"/>
            </g>
        </g>
        <g transform="matrix(4.16667,0,0,4.16667,0,0)">
            <g transform="matrix(1,0,0,1,362.255,291.768)">
                <path d="M0,-17.685L9.783,-17.685C15.292,-17.685 16.371,-16.545 16.371,-14.578C16.371,-12.539 15.321,-11.434 9.783,-11.434L0,-11.434L0,-17.685ZM21.943,-14.541C21.943,-18.42 19.957,-23.044 10.493,-23.044L-5.715,-23.044L-5.715,5.359L0,5.359L0,-6.075L8.2,-6.075L16.509,5.359L23.61,5.359L14.863,-6.449C18.498,-7.256 21.943,-9.682 21.943,-14.541" style="fill:rgb(156,162,171);fill-rule:nonzero;"/>
            </g>
        </g>
        <g transform="matrix(4.16667,0,0,4.16667,0,0)">
            <g transform="matrix(1,0,0,1,406.401,273.443)">
                <path d="M0,18.963C-2.495,18.963 -10.635,18.25 -10.635,9.073C-10.635,3.648 -6.262,-0.141 0,-0.141C6.262,-0.141 10.636,3.648 10.636,9.073C10.636,18.25 2.495,18.963 0,18.963M0,-5.359C-9.822,-5.359 -16.421,0.669 -16.421,9.642C-16.421,19.729 -7.909,24.322 0,24.322C7.908,24.322 16.421,19.729 16.421,9.642C16.421,0.669 9.822,-5.359 0,-5.359" style="fill:rgb(156,162,171);fill-rule:nonzero;"/>
            </g>
        </g>
        <g transform="matrix(4.16667,0,0,4.16667,0,0)">
            <g transform="matrix(1,0,0,1,452.536,281.273)">
                <path d="M0,3.942C0,8.877 -2.898,11.275 -8.86,11.275C-14.822,11.275 -17.721,8.877 -17.721,3.942L-17.721,-12.55L-23.436,-12.55L-23.436,3.942C-23.436,12.035 -18.26,16.492 -8.86,16.492C0.539,16.492 5.715,12.035 5.715,3.942L5.715,-12.55L0,-12.55L0,3.942Z" style="fill:rgb(156,162,171);fill-rule:nonzero;"/>
            </g>
        </g>
        <g transform="matrix(4.16667,0,0,4.16667,0,0)">
            <g transform="matrix(1,0,0,1,471.594,291.768)">
                <path d="M0,-17.685L9.89,-17.685C15.907,-17.685 16.406,-16.097 16.406,-14.329C16.406,-12.579 15.907,-11.007 9.89,-11.007L0,-11.007L0,-17.685ZM10.706,-23.044L-5.715,-23.044L-5.715,5.359L0,5.359L0,-5.648L10.706,-5.648C20.022,-5.648 21.979,-10.388 21.979,-14.365C21.979,-18.325 20.022,-23.044 10.706,-23.044" style="fill:rgb(156,162,171);fill-rule:nonzero;"/>
            </g>
        </g>
        <g transform="matrix(4.16667,0,0,4.16667,0,0)">
            <g transform="matrix(1,0,0,1,504.963,280.761)">
                <path d="M0,4.329L16.617,4.329L16.617,-1.03L0,-1.03L0,-6.678L19.884,-6.678L19.884,-12.037L-5.715,-12.037L-5.715,16.366L20.31,16.366L20.31,11.007L0,11.007L0,4.329Z" style="fill:rgb(156,162,171);fill-rule:nonzero;"/>
            </g>
        </g>
        <g transform="matrix(4.16667,0,0,4.16667,0,0)">
            <g transform="matrix(1,0,0,1,373.999,118.072)">
                <path d="M0,72.496C-0.023,77.509 -0.717,81.162 -1.876,83.87L-15.338,87.627L-27.335,87.627L0,72.496ZM-26.053,75.474C-29.564,78.192 -38.527,80.949 -38.398,75.087C-29.079,76.892 -26.938,63.657 -18.641,67.557C-20.738,67.947 -22.597,72.786 -26.053,75.474M-49.344,70.421C-44.557,63.333 -40.835,73.095 -32.876,67.667C-30.228,71.841 -36.723,74.444 -40.51,72.122C-44.304,69.771 -47.353,69.676 -49.344,70.421M-3.662,56.53C2.656,56.53 6.4,54.444 7.992,52.854C7.368,57.403 2.529,58.97 -3.604,58.97C-9.744,58.97 -15.395,52.198 -20.066,56.723C-11.851,55.759 -10.63,64.436 -1.35,61.518C-9.375,70.151 -15.247,54.929 -24.473,59.333C-19.8,48.183 -9.952,56.53 -3.662,56.53M9.075,49.181C10.846,51.152 -0.317,56.214 -5.802,54.276C3.382,54.403 7.251,47.187 9.075,49.181M-0.569,87.627L-2.543,87.627C-1.171,85.651 -0.077,83.239 1.073,80.558C1.152,82.208 0.742,84.952 -0.569,87.627M16.595,52.532C14.558,54.35 5.228,62.528 8.136,84.836C11.081,80.02 8.56,61.772 17.259,55.157C11.167,62.577 14.398,75.722 9.99,87.627L5.712,87.627C6.925,78.033 1.603,63.616 16.595,52.532M15.225,87.627L11.884,87.627C16.894,78.306 14.098,63.168 18.419,58.511C15.42,63.911 20.155,76.95 15.225,87.627M23.5,87.627L18.393,87.627L21.108,83.257C22.496,84.99 23.227,86.409 23.5,87.627M22.865,64.056L23.013,62.871C23.415,77.429 34,79.737 34,86.977C34,87.2 33.979,87.412 33.966,87.627L32.103,87.627C32.23,86.302 31.929,84.988 30.954,83.688C24.059,74.488 23.764,72.513 23.764,72.513C24.356,79.488 28.802,80.383 29.87,87.627L27.005,87.627C25.947,82.204 20.441,80.077 22.865,64.056M28.951,57.276C35.056,57.636 41.488,60.69 41.488,60.69C42.214,62.245 40.379,67.248 38.778,67.729C37.28,68.177 29.953,67.401 28.889,64.282C33.294,65.467 33.59,63.815 33.59,63.815C33.59,63.815 29.573,63.843 27.951,61.056C31.091,62.179 32.599,61.011 32.599,61.011C32.599,61.011 26.493,58.677 26.305,57.276L28.951,57.276ZM35.361,51.064C33.107,51.805 32.725,55.446 39.271,56.93C37.143,57.238 31.924,56.268 31.765,52.674C31.628,49.851 35.445,49.581 35.361,51.064M43.405,70.214C46.189,70.214 51.473,70.063 51.619,70.063C52.367,70.063 52.517,70.308 52.549,70.438C52.568,70.723 52.199,72.126 51.639,72.27C51.598,72.296 46.441,73.505 43.405,73.35C40.379,73.505 35.222,72.296 35.171,72.27C34.621,72.126 34.231,70.723 34.273,70.438C34.295,70.308 34.434,70.063 35.181,70.063C35.181,70.063 40.623,70.214 43.405,70.214M43.744,78.825C46.918,82.51 47.834,85.181 47.881,87.627L45.949,87.627C46.042,85.267 45.602,82.514 43.744,78.825M38.582,87.627C39.725,82.608 37.654,81.079 33.419,76.559C39.778,80.934 42.072,83.952 41.652,87.627L38.582,87.627ZM52.998,87.627L51.053,87.627C51.899,84.767 52.139,81.725 49.712,77.396C53.295,80.431 53.545,83.991 52.998,87.627M56.859,87.627L54.684,87.627C55.626,83.991 56.109,80.111 53.832,75.424C57.467,78.41 57.426,83.052 56.859,87.627M62.543,87.627L60.555,87.627L58.253,81C60.048,81.917 61.371,84.399 62.543,87.627M63.944,64.416C58.295,76.556 72.222,84.147 74.824,86.567C75.123,86.844 75.421,87.217 75.719,87.627L71.021,87.627C69.646,84.743 68.181,82.536 66.527,81.782C67.666,83.493 68.518,85.491 69.252,87.627L67.021,87.627C63.779,81.214 58.402,76.314 63.944,64.416M-24.038,43.497C-24.504,40.103 -7.464,37.592 -7.329,42.453C-7.203,46.694 -23.535,47.241 -24.038,43.497M-31.083,32.918C-32.231,31.395 -33.212,30.079 -34.444,29.664C-36.039,29.139 -37.809,29.204 -39.378,29.274C-41.32,29.37 -42.998,29.446 -43.515,28.244C-43.861,27.461 -43.492,26.628 -42.48,25.892C-41.447,25.155 -39.928,24.647 -38.398,24.563C-36.669,24.444 -35.185,24.862 -34.214,25.731C-33.254,26.59 -32.864,26.659 -32.696,26.579C-32.452,26.462 -32.516,25.892 -32.537,25.508C-32.578,25.225 -32.621,25.005 -32.452,25.028C-29.732,25.472 -28.415,27.15 -27.023,28.831C-24.695,31.626 -21.109,35.878 -12.389,34.391C-14.594,42.149 -27.098,39.847 -31.083,32.918M-34.425,35.917C-42.038,31.729 -48.795,36.71 -48.795,36.71C-46.518,29.147 -32.422,28.518 -34.425,35.917M-21.036,-15.161C-23.501,-10.871 -23.019,-3.041 -13.149,-0.716C-29.689,2.961 -29.271,-15.816 -21.036,-15.161M115.752,70.811C118.768,62.784 128.213,59.333 132.115,66.356C132.305,66.706 132.01,66.977 131.326,66.304C126.443,61.411 120.182,66.059 116.261,71.155C115.701,71.881 115.522,71.426 115.752,70.811M114.002,32.536C118.307,34.388 104.987,47.356 100.9,46.882C109.416,44.354 109.704,30.672 114.002,32.536M123.17,87.627L106.147,77.571C109.544,78.007 112.527,76.501 115.303,74.495L120.484,80.824L117.315,72.979C120.76,70.278 123.576,67.372 127.099,67.287C136.703,67.051 129.977,78.581 133.486,78.62C137.41,78.653 141.666,65.778 132.254,60.126C122.512,54.229 114.002,62.741 107.107,61.294L132.94,49.761L95.205,49.761L93.865,47.229C100.699,50.303 105.561,47.45 108.816,44.245L119.56,45.794L110.681,42.321C112.803,40.103 114.594,38.378 116.839,39.237C120.023,40.454 121.891,43.257 127.426,43.317C136.768,43.423 143.566,26.818 131.221,19.611C132.158,31.451 126.645,32.042 117.078,25.754L120.36,20.397L115.459,24.71C106.266,20.62 101.785,28.748 97.916,31.385C94.043,34 90.502,28.748 85.797,35.003C92.811,32.694 96.385,39.399 100.995,35.003C99.083,46.882 92.262,31.385 85.463,37.311C91.355,37.753 94.436,43.026 99.125,43.026C107.772,43.026 100.064,26.39 112.239,26.39L110.218,25.093C117.123,24.444 117.473,31.344 127.876,31.47C128.953,33.036 125.158,33.159 122.49,32.249C122.055,34.464 136.615,39.416 133.116,22.868C137.703,25.354 136.703,35.763 132.41,39.719C131.577,40.485 130.799,40.864 130.283,40.063C129.109,38.293 132.115,38.324 132.969,35.643C129.713,38.478 124.156,38.239 120.36,34.729C116.575,31.204 110.894,26.916 108.457,34.335C106.032,41.761 104,45.205 99.527,45.283C93.37,45.384 86.843,35.058 80.012,40.767C93.072,41.977 96.153,62.741 107.646,63.003C116.575,63.003 118.59,59.081 124.398,59.081C130.239,59.081 136.324,62.149 136.324,69.811C136.324,74.444 133.888,77.047 133.888,77.047C133.888,77.047 135.678,73.284 134.783,68.504C133.921,63.933 130.018,61.142 124.916,61.142C117.747,61.142 111.98,72.887 104,72.887C88.036,72.887 83.932,42.106 67.233,46.843C79.527,55.147 80.875,68.435 87.487,73.533C94.193,78.698 102.174,76.585 106.601,80.477C108.4,82.054 109.155,84.724 109.748,87.627L108.229,87.627C107.684,86.136 106.884,84.749 105.561,83.587C101.732,79.564 90.238,81.33 84.957,75.634C79.688,69.919 75.814,52.786 65.422,50.159C74.487,55.974 76.502,70.975 82.994,78.326C89.469,85.681 98.041,81.782 101.983,85.64C102.684,86.321 103.266,86.98 103.799,87.627L96.363,87.627C95.706,87.509 95.003,87.429 94.213,87.421C93.01,87.415 91.789,87.508 90.571,87.627L80.318,87.627C78.973,87.212 77.724,86.504 76.615,85.347C71.469,79.913 71.946,74.198 72.356,67.45C73.352,73.792 74.581,88.37 85.474,86.735C71.766,82.053 79.737,58.56 62.982,52.536C61.171,51.873 61.793,45.975 66.359,45.093C57.313,46.829 57.366,43.517 63.756,36.866C59.82,39.374 55.52,38.648 54.568,41.493C54.568,41.493 61.984,53.134 61.984,55.405C61.984,57.681 57.103,66.853 56.563,67.149C54.729,68.136 48.781,68.177 47.266,67.729C45.693,67.248 43.846,62.245 44.564,60.69C45.703,58.265 54.879,56.268 55.045,52.674C55.162,49.851 51.345,49.581 51.473,51.064C53.684,51.805 54.635,55.064 48.149,56.565L49.614,54.229C49.614,54.229 44.809,58.067 44.564,58.229C44.323,58.394 43.195,58.473 42.487,58.251C41.783,58.026 34.842,54.693 36.025,51.394C36.025,51.394 38.134,52.312 43.383,52.312C48.666,52.312 49.139,50.025 49.139,50.025C49.139,50.025 46.327,50.74 43.459,50.74C40.577,50.74 37.766,50.025 37.766,50.025C35.487,49.495 37.902,46.62 38.705,46.585L44.172,46.585C44.503,46.585 44.965,45.823 44.218,45.776C43.668,45.761 40.188,45.672 39.914,44.817C39.451,43.356 38.514,34.213 38.514,34.213C38.514,34.213 39.707,31.366 38.711,30.425C37.734,29.474 37.25,29.97 37.25,29.97C39.516,42.666 29.783,50.573 24.218,49.044L23.562,48.929C24.807,49.864 26.421,50.728 28.505,51.427C18.123,53.631 13.885,47.306 12.218,43.466C11.313,43.931 11.288,46.396 11.406,47.967C9.243,45.597 7.948,41.968 9.921,39.315C7.273,40.591 7.169,40.999 7.169,40.999C7.273,38.817 11.092,37.394 13.02,34.856C14.918,32.315 14.539,28.413 10.425,26.765C10.699,30.68 8.759,33.357 4.796,34.677C0.957,35.948 1.61,32.466 -1.953,33.241C3.869,34.566 3.562,42.611 9.372,45.921C1.61,44.1 0.272,33.549 -9.176,34.595C-3.743,26.855 4.847,33.503 8.402,28.143C-0.793,30.249 -7.054,22.487 -8.12,13.979C-9.744,0.956 -20.738,7.376 -20.558,0.956C-15.026,3.452 -2.752,-6.036 0.863,4.768C4.659,16.065 12.313,20.666 19.198,15.446L-10.829,-15.02L-7.036,-2.249C-14.877,-0.702 -24.334,-5.378 -19.204,-16.343C-26.623,-19.79 -36.448,-7.454 -27.381,2.214C-23.188,6.667 -12.969,5.029 -10.283,14.151L-20.013,13.364L-10.016,15.979L-7.036,24.829L-30.29,13.364L-15.965,30.034C-24.334,34.464 -26.412,21.779 -37.239,22.05C-44.811,22.231 -53.29,30.034 -49.764,39.154C-38.439,32.29 -34.795,37.184 -29.986,41.947L-36.966,45.672L-28.712,43.171C-25.778,45.888 -22.185,48.183 -16.228,47.762C-6.443,47.032 2.191,43.876 4.404,46.535C6.113,48.556 4.152,49.761 0.622,49.761L-46.159,49.761L-27.404,59.811C-29.216,61.215 -34.444,67.63 -38.05,67.63C-41.645,67.63 -49.764,62.075 -51.915,71.798C-43.576,70.374 -39.35,88.594 -21.818,74.061L-30.018,87.627L-68.613,87.627L-68.613,92.286L163.114,92.286L163.114,87.627L123.17,87.627Z" style="fill:rgb(156,162,171);fill-rule:nonzero;"/>
            </g>
        </g>
        <g transform="matrix(4.16667,0,0,4.16667,0,0)">
            <g transform="matrix(1,0,0,1,424.995,144.843)">
                <path d="M0,-9.672C-6.493,-8.963 -5.471,-0.15 -0.589,-0.15C4.282,-0.15 5.01,-2.424 8.709,-2.424C12.398,-2.424 13.719,0 16.693,0C19.622,0 21.404,-2.123 20.073,-3.984C18.154,-0.85 14.751,-5.121 12.252,-5.121C8.416,-5.121 6.771,-3.536 4.282,-2.279C1.478,-0.85 -1.201,-2.205 -0.154,-3.851C-2.299,-3.883 -3.689,-6.549 0,-9.672" style="fill:rgb(156,162,171);fill-rule:nonzero;"/>
            </g>
        </g>
        <g transform="matrix(4.16667,0,0,4.16667,0,0)">
            <g transform="matrix(-0.541246,0.840864,0.840864,0.541246,456.749,113.636)">
                <path d="M-0.174,-9.89C11.069,-10.123 14.619,2.054 24.535,-7.237C16.193,6.015 9.38,-8.052 -0.174,-7.407C-9.732,-6.765 -10.843,0.222 -19.446,-2.833C-11.584,-1.686 -6.618,-9.771 -0.174,-9.89" style="fill:rgb(156,162,171);fill-rule:nonzero;"/>
            </g>
        </g>
        <g transform="matrix(4.16667,0,0,4.16667,0,0)">
            <g transform="matrix(1,0,0,1,430.522,116.015)">
                <path d="M0,9.833C-3.586,6.313 -1.973,0 -1.973,0C-1.973,0 -7.623,7.086 0,9.833" style="fill:rgb(156,162,171);fill-rule:nonzero;"/>
            </g>
        </g>
        <g transform="matrix(4.16667,0,0,4.16667,0,0)">
            <g transform="matrix(-0.472982,0.881072,0.881072,0.472982,459.234,118.528)">
                <path d="M-3.339,-9.201C5.622,-10.101 12.409,0.124 20.157,-7.687C14.163,4.175 3.627,-8.72 -3.339,-7.013C-10.719,-6.211 -11.604,-2.334 -18.282,-3.667C-12.37,-3.679 -8.46,-8.697 -3.339,-9.201" style="fill:rgb(156,162,171);fill-rule:nonzero;"/>
            </g>
        </g>
        <g transform="matrix(4.16667,0,0,4.16667,0,0)">
            <g transform="matrix(1,0,0,1,471.376,138.671)">
                <path d="M0,-4.483C-10.984,-8.977 -17.501,1.382 -17.501,4.494C-14.836,3.218 -10.471,-1.554 -8.837,-2.624C-5.852,-4.583 -1.224,-3.389 0,-4.483" style="fill:rgb(156,162,171);fill-rule:nonzero;"/>
            </g>
        </g>
        <g transform="matrix(4.16667,0,0,4.16667,0,0)">
            <g transform="matrix(1,0,0,1,445.557,149.925)">
                <path d="M0,0.515C0.789,2.279 4.059,-1.651 8.993,-0.145C6.608,-1.764 -0.437,-1.751 0,0.515" style="fill:rgb(156,162,171);fill-rule:nonzero;"/>
            </g>
        </g>
        <g transform="matrix(4.16667,0,0,4.16667,0,0)">
            <g transform="matrix(1,0,0,1,481.811,146.82)">
                <path d="M0,-18.132C-2.319,-7.366 -22.518,-15.331 -22.35,0C-18.069,-7.589 1.753,-6.915 0,-18.132" style="fill:rgb(156,162,171);fill-rule:nonzero;"/>
            </g>
        </g>
        <g transform="matrix(4.16667,0,0,4.16667,0,0)">
            <g transform="matrix(1,0,0,1,441.856,154.422)">
                <path d="M0,1.084C0.38,3.385 4.429,-1.4 12.187,1.932C9.519,-1.936 -0.581,-2.301 0,1.084" style="fill:rgb(156,162,171);fill-rule:nonzero;"/>
            </g>
        </g>
        <g transform="matrix(4.16667,0,0,4.16667,0,0)">
            <g transform="matrix(1,0,0,1,426.03,99.3992)">
                <path d="M0,26.408C-7.824,13.558 10.52,10.606 5.335,0C5.998,8.297 -11.622,16.857 0,26.408" style="fill:rgb(156,162,171);fill-rule:nonzero;"/>
            </g>
        </g>
        <g transform="matrix(4.16667,0,0,4.16667,0,0)">
            <g transform="matrix(1,0,0,1,428.013,180.677)">
                <path d="M0,-5.06C-1.055,-4.312 -3.576,-3.582 -5.548,-2.258C-5.748,-1.914 -6.084,-0.697 -6.528,-0.413C-4.5,0 -0.16,-2.922 0,-5.06" style="fill:rgb(156,162,171);fill-rule:nonzero;"/>
            </g>
        </g>
        <g transform="matrix(4.16667,0,0,4.16667,0,0)">
            <g transform="matrix(1,0,0,1,401.716,147.725)">
                <path d="M0,6.658C1.378,5.172 2.363,1.596 2.592,1.038C5.629,3.379 2.592,7.658 0,6.658M-2.403,5.929C-5.557,4.737 -4.238,-1.336 -0.041,-0.453C-0.293,0.034 -2.216,3.736 -2.403,5.929M1.149,-1.839C-1.896,-2.455 -5.524,0.611 -9.059,2.248C-5.738,7.03 1.962,7.413 5.052,9.113C5.746,8.053 8.086,-0.461 1.149,-1.839" style="fill:rgb(156,162,171);fill-rule:nonzero;"/>
            </g>
        </g>
        <g transform="matrix(4.16667,0,0,4.16667,0,0)">
            <g transform="matrix(1,0,0,1,413.913,144.056)">
                <path d="M0,-3.07C-3.341,0.871 -5.722,-3.453 -9.972,-3.453C-13.624,-3.497 -17.87,0.595 -18.605,-2.045C-19.186,-4.09 -15.432,-7.511 -10.533,-7.88C-14.708,-9.04 -21.529,-5.204 -22.761,-0.979C-24.102,-0.85 -25.219,-1.218 -25.219,-1.218C-23.509,5.97 -16.266,-1.376 -12.859,-1.376C-9.782,-1.376 -0.187,5.565 0,-3.07" style="fill:rgb(156,162,171);fill-rule:nonzero;"/>
            </g>
        </g>
        <g transform="matrix(4.16667,0,0,4.16667,0,0)">
            <g transform="matrix(1,0,0,1,424.943,108.51)">
                <path d="M0,-13.022C3.624,-1.549 -8.306,1.496 -9.3,9.067C-10.035,-0.087 1.402,-4.429 0,-13.022M-11.988,-11.191L-8.349,-1.691C-8.349,-1.691 -11.673,2.188 -11.673,9.09C-11.673,22.634 -0.569,23.897 -1.339,18.434C-9.142,21.999 -9.521,10.709 -7.381,8.323C-7.381,8.323 -8.804,14.245 -3.587,16.391C-10.544,4.871 3.162,0.485 3.162,-8.708C3.162,-16.375 -1.55,-18.866 -1.445,-25.9C-1.32,-34.366 11.136,-36.575 11.261,-33.316C11.364,-30.988 2.212,-30.726 2.067,-21.993C1.929,-13.813 11.069,-11.845 10.871,-3.892C10.723,1.311 1.39,6.124 7.212,15.905L20.472,-21.493L10.31,-10.024C7.062,-14.078 4.511,-14.459 4.511,-21.732C4.511,-29.029 12.619,-30.075 12.619,-33.469C12.619,-36.197 8.55,-36.575 5.579,-36.712C0.991,-36.919 -7.126,-32.939 -7.126,-24.486C-7.126,-16.005 -1.394,-11.716 -7.085,-3.765L-11.988,-11.191Z" style="fill:rgb(156,162,171);fill-rule:nonzero;"/>
            </g>
        </g>
        <g transform="matrix(4.16667,0,0,4.16667,0,0)">
            <g transform="matrix(1,0,0,1,404.353,157.293)">
                <path d="M0,0.839C-1.877,-0.422 -8.563,-0.232 -12.313,-4.069C-12.313,-4.069 -12.599,-3.279 -12.24,-2.621C-16.869,-0.77 -15.553,3.611 -15.553,3.611C-15.553,3.611 -12.538,-0.057 -10.629,0.009C-10.629,0.009 -11.05,2.947 -10.198,4.285L-9.796,4.908C-11.408,-1.163 0,0.839 0,0.839" style="fill:rgb(156,162,171);fill-rule:nonzero;"/>
            </g>
        </g>
        <g transform="matrix(4.16667,0,0,4.16667,0,0)">
            <g transform="matrix(1,0,0,1,373.049,118.596)">
                <path d="M0,-34.653C-2.035,-37.123 8.025,-39.886 9.855,-33.698C4.892,-36.941 0.95,-33.498 0,-34.653M-2.827,-13.728L5.525,-9.732C5.777,-6.867 6.99,-3.826 9.879,-0.445C13.115,3.342 21.949,4.461 22.319,13.373C25.009,10.668 22.902,4.416 16.912,0.867C-5.494,-12.291 32.208,-32.908 7.993,-40.298C28.919,-41.705 19.99,-22.781 21.665,-15.192C23.975,-4.72 33.644,-7.252 38.819,-0.699L33.136,-32.49L27.739,-10.334C20.612,-11.383 23.132,-21.495 23.321,-30.65C23.669,-48.026 -6.052,-43.05 -2.026,-33.265C-0.507,-29.552 9.554,-37.869 9.616,-29.078C9.668,-23.098 5.934,-17.91 5.514,-12.048L-2.827,-13.728Z" style="fill:rgb(156,162,171);fill-rule:nonzero;"/>
            </g>
        </g>
        <g transform="matrix(4.16667,0,0,4.16667,0,0)">
            <g transform="matrix(1,0,0,1,390.88,128.171)">
                <path d="M0,-26.057C-9.872,-7.384 24.269,-15.881 19.827,0C27.007,-17.164 -3.735,-7.606 0,-26.057" style="fill:rgb(156,162,171);fill-rule:nonzero;"/>
            </g>
        </g>
        <g transform="matrix(4.16667,0,0,4.16667,0,0)">
            <g transform="matrix(1,0,0,1,479.355,156.406)">
                <path d="M0,31.29C5.677,31.166 10.167,25.573 13.379,23.521C8.767,24.583 6.339,28.689 0,28.834C-10.404,29.038 -15.822,-0.361 -33.547,5.64C-15.285,7.075 -15.707,31.651 0,31.29" style="fill:rgb(156,162,171);fill-rule:nonzero;"/>
            </g>
        </g>
        <g transform="matrix(4.16667,0,0,4.16667,0,0)">
            <g transform="matrix(1,0,0,1,403.117,84.7083)">
                <path d="M0,41.555C-0.503,41.555 -0.97,41.394 -1.38,41.129C-3.73,39.648 -4.976,35.591 -7.36,36.029C-5.977,37.093 -6.596,40.912 -4.636,43.025C-3.712,44.086 -2.351,44.739 -0.836,44.739C1.984,44.739 4.24,42.47 4.24,39.664C4.24,38.031 3.481,36.574 2.278,35.659C0.485,34.266 -2.063,33.331 -9.497,30.808C-27.179,24.8 -0.705,6.859 -12.894,-3.184C-6.201,11.26 -25.736,19.843 -15.583,29.97C-11.175,34.557 -1.537,33.863 1.772,37.128C2.258,37.587 2.564,38.263 2.564,38.993C2.564,40.403 1.424,41.555 0,41.555" style="fill:rgb(156,162,171);fill-rule:nonzero;"/>
            </g>
        </g>
        <g transform="matrix(4.16667,0,0,4.16667,0,0)">
            <g transform="matrix(1,0,0,1,387.884,139.587)">
                <path d="M0,-2.612C-3.186,-2.7 -8.299,-4.215 -10.08,-8.497C-11.733,-4.592 -6.663,5.885 0,-2.612" style="fill:rgb(156,162,171);fill-rule:nonzero;"/>
            </g>
        </g>
        <g transform="matrix(4.16667,0,0,4.16667,0,0)">
            <g transform="matrix(1,0,0,1,429.603,183.891)">
                <path d="M0,-5.395C-0.199,-4.89 -1.627,-4.333 -4.522,-3.226C-4.924,-2.57 -5.809,-1.505 -6.695,-0.953C-3.236,0 0.591,-3.512 0,-5.395" style="fill:rgb(156,162,171);fill-rule:nonzero;"/>
            </g>
        </g>
        <g transform="matrix(4.16667,0,0,4.16667,0,0)">
            <g transform="matrix(1,0,0,1,444.333,146.086)">
                <path d="M0,1.313C0.727,2.509 1.79,0.237 3.754,-0.843C1.199,-1.196 -0.371,0.663 0,1.313" style="fill:rgb(156,162,171);fill-rule:nonzero;"/>
            </g>
        </g>
        <g transform="matrix(4.16667,0,0,4.16667,0,0)">
            <g transform="matrix(1,0,0,1,430.532,152.554)">
                <path d="M0,-4.868C0.242,-4.315 1.211,-0.733 2.594,0.748C0,1.744 -3.016,-2.529 0,-4.868M5.008,0.025C5.008,0.025 2.91,-5.876 2.646,-6.364C6.843,-7.239 8.148,-1.167 5.008,0.025M11.659,-3.516C8.139,-5.143 4.514,-8.221 1.474,-7.604C-5.493,-6.223 -3.143,2.288 -2.459,3.353C0.654,1.649 8.349,1.265 11.659,-3.516" style="fill:rgb(156,162,171);fill-rule:nonzero;"/>
            </g>
        </g>
        <g transform="matrix(4.16667,0,0,4.16667,0,0)">
            <g transform="matrix(1,0,0,1,477.143,128.778)">
                <path d="M0,-10.453C1.917,-7.168 -3.796,-1.24 -3.796,-1.24C-2.298,-0.693 -2.361,1.455 -4.229,2.002C-7.601,2.996 -10.28,-0.799 -14.604,0.31C-13.707,-1.24 -4.705,-0.906 0,-10.453M-19.661,-0.375C-22.783,3.045 -22.563,5.848 -27.222,8.831C-21.14,11.447 -20.981,3.399 -14.909,1.649C-10.765,0.438 -7.611,5.442 -1.685,2.727C4.259,0.005 2.12,-10.992 4.998,-15.845C7.889,-20.681 15.835,-25.209 21.466,-15.436C21.466,-15.436 11.958,-24.791 7.485,-13.627C10.589,-16.211 15.192,-17.004 15.192,-14.523C12.755,-13.747 8.825,-12.312 8.696,-3.585C8.551,6.572 4.448,8.768 1.253,10.861C-3.354,13.912 -14.077,13.754 -16.458,20.679L20.728,4.088L9.384,4.088C10.858,-4.234 7.623,-16.623 23.163,-13.747C25.069,-17.876 12.138,-31.132 0.896,-16.014L-0.179,-19.826C-2.53,0.31 -13.169,-7.496 -19.661,-0.375" style="fill:rgb(156,162,171);fill-rule:nonzero;"/>
            </g>
        </g>
        <g transform="matrix(4.16667,0,0,4.16667,0,0)">
            <g transform="matrix(1,0,0,1,385.248,127.757)">
                <path d="M0,14.3C-15.679,14.562 -4.144,-2.634 -15.837,-5.162C-9.808,-1.096 -13.115,2.554 -13.074,9.13C-13.023,17.064 -3.522,19.462 0,14.3" style="fill:rgb(156,162,171);fill-rule:nonzero;"/>
            </g>
        </g>
        <g transform="matrix(4.16667,0,0,4.16667,0,0)">
            <g transform="matrix(1,0,0,1,440.093,97.8113)">
                <path d="M0,21.078C-1.812,25.98 -6.832,27.367 -9.289,31.621C-7.918,31.665 -0.631,30.01 2.066,25.443C4.658,21.029 2.119,8.16 10.471,5.021C19.201,1.721 28.342,-3.129 18.02,-13.662C33.855,-9.652 24.959,7.244 23.08,9.724C21.287,12.019 15.456,16.645 15.456,24.061C15.456,29.56 10.521,35.83 6.676,36.592C10.732,38.236 16.808,28.944 16.808,28.944L36.545,3.412L25.189,9.274C25.189,9.274 28.301,6.587 28.301,-2.314C28.301,-14.905 14.781,-17.158 14.908,-13.247C15.014,-10.648 19.506,-8.807 19.653,-4.527C19.781,-0.252 13.782,2.179 9.098,3.541L7.002,-3.496L7.002,4.416C-0.672,8.378 1.906,15.924 0,21.078" style="fill:rgb(156,162,171);fill-rule:nonzero;"/>
            </g>
        </g>
    </g>
</svg>
